<?xml version="1.0" standalone="no"?>
<!DOCTYPE svg PUBLIC "-//W3C//DTD SVG 20010904//EN"
 "http://www.w3.org/TR/2001/REC-SVG-20010904/DTD/svg10.dtd">
<svg version="1.0" xmlns="http://www.w3.org/2000/svg"
 width="356.000000pt" height="142.000000pt" viewBox="0 0 356.000000 142.000000"
 preserveAspectRatio="xMidYMid meet">

<g transform="translate(0.000000,142.000000) scale(0.100000,-0.100000)"
fill="#000000" stroke="none">
<path d="M646 1155 c-9 -21 -31 -59 -49 -84 -52 -73 -53 -75 -17 -56 17 9 61
23 97 30 36 8 66 15 68 17 1 2 -17 32 -40 67 l-44 64 -15 -38z"/>
<path d="M2530 1045 c0 -52 -1 -55 -19 -45 -52 27 -113 -12 -113 -72 0 -47 15
-74 51 -86 22 -8 36 -7 56 4 32 17 38 17 30 4 -3 -5 3 -10 14 -10 20 0 21 5
21 130 0 123 -1 130 -20 130 -18 0 -20 -7 -20 -55z m-18 -82 c20 -18 24 -63 6
-81 -36 -36 -98 11 -79 61 15 38 44 46 73 20z"/>
<path d="M2710 970 c0 -123 1 -130 20 -130 11 0 20 4 20 9 0 5 13 3 29 -5 80
-40 151 77 85 143 -25 25 -52 27 -96 8 -16 -6 -18 -1 -18 49 0 49 -2 56 -20
56 -19 0 -20 -7 -20 -130z m122 -7 c32 -29 16 -93 -24 -93 -27 0 -58 27 -58
52 0 20 34 58 52 58 6 0 20 -7 30 -17z"/>
<path d="M1180 960 c0 -113 1 -120 20 -120 17 0 20 7 20 49 l0 48 47 6 c75 8
109 71 63 117 -16 16 -33 20 -85 20 l-65 0 0 -120z m116 76 c28 -22 7 -50 -40
-54 -35 -3 -36 -2 -36 32 0 33 3 36 28 36 16 0 37 -6 48 -14z"/>
<path d="M742 1008 c-23 -26 -92 -137 -92 -150 0 -5 16 -6 36 -2 36 7 36 7 21
-17 -25 -39 -57 -145 -57 -189 0 -38 2 -40 24 -34 24 6 25 5 14 -33 -13 -47
-16 -198 -5 -276 8 -53 10 -57 35 -57 15 0 50 11 78 24 181 84 250 279 165
462 -25 53 -185 294 -195 294 -1 0 -12 -10 -24 -22z"/>
<path d="M1425 999 c-32 -18 -45 -40 -45 -75 0 -63 60 -104 122 -82 56 20 73
103 29 142 -24 22 -81 30 -106 15z m75 -39 c24 -24 25 -38 4 -68 -17 -24 -53
-29 -72 -10 -17 17 -15 58 5 80 21 23 38 23 63 -2z"/>
<path d="M1914 998 c-44 -21 -57 -89 -24 -130 25 -32 65 -40 109 -22 28 12 32
16 21 29 -9 11 -16 13 -24 5 -22 -22 -86 -6 -86 22 0 4 29 8 65 8 l65 0 -6 28
c-13 56 -69 85 -120 60z m76 -38 c10 -19 8 -20 -35 -20 -46 0 -54 7 -33 28 19
19 56 14 68 -8z"/>
<path d="M2136 994 c-9 -8 -16 -11 -16 -5 0 6 -9 11 -20 11 -18 0 -20 -7 -20
-80 0 -73 2 -80 20 -80 17 0 20 7 20 53 0 55 12 77 42 77 11 0 18 7 18 20 0
24 -22 26 -44 4z"/>
<path d="M2241 997 c-58 -29 -57 -127 2 -152 53 -22 128 5 93 34 -10 8 -16 9
-21 1 -11 -18 -63 -12 -75 10 -10 19 -8 20 55 20 63 0 65 1 65 25 0 32 -41 75
-72 75 -13 0 -34 -6 -47 -13z m67 -29 c21 -21 13 -28 -35 -28 -45 0 -46 0 -28
20 20 23 45 26 63 8z"/>
<path d="M1582 988 c3 -7 15 -43 27 -80 19 -57 26 -68 45 -68 18 0 24 9 35 50
7 27 16 52 20 55 4 2 15 -21 25 -51 14 -46 21 -55 38 -52 16 2 27 22 49 81
l29 78 -22 -3 c-17 -2 -26 -15 -39 -58 -16 -52 -18 -53 -27 -30 -5 14 -13 40
-17 58 -5 25 -12 32 -30 32 -20 0 -26 -9 -43 -57 l-19 -58 -17 58 c-13 46 -21
57 -37 57 -13 0 -19 -5 -17 -12z"/>
<path d="M2946 918 c28 -67 33 -87 25 -105 -6 -13 -17 -23 -25 -23 -7 0 -16
-7 -20 -15 -7 -19 46 -21 62 -2 9 11 92 211 92 222 0 3 -9 5 -19 5 -15 0 -24
-13 -37 -55 -10 -30 -20 -55 -24 -55 -3 0 -14 25 -25 55 -15 45 -22 55 -41 55
l-23 0 35 -82z"/>
<path d="M455 893 c-25 -32 -62 -91 -83 -132 -32 -66 -37 -85 -40 -160 -3 -69
1 -97 17 -142 42 -110 136 -187 260 -209 34 -6 65 -9 68 -6 2 2 -11 37 -30 78
-19 40 -38 89 -42 108 -12 65 -16 71 -35 65 -15 -5 -20 3 -29 45 -6 28 -11 82
-11 120 0 39 -3 70 -6 70 -3 0 -15 -5 -26 -11 -21 -11 -21 -10 -15 77 3 49 10
102 17 118 18 47 4 41 -45 -21z"/>
<path d="M1970 545 l0 -175 25 0 c24 0 25 3 25 58 1 64 -5 66 65 -22 26 -32
35 -37 63 -34 l33 3 -45 53 c-25 30 -46 56 -46 60 0 3 21 28 47 54 l47 48 -34
0 c-27 0 -44 -9 -82 -47 l-48 -47 0 112 0 112 -25 0 -25 0 0 -175z"/>
<path d="M2610 545 l0 -175 25 0 c22 0 24 4 27 57 l3 57 44 -57 c38 -50 48
-57 78 -57 l35 0 -34 41 c-68 83 -67 74 -12 130 l48 49 -34 0 c-27 0 -44 -9
-82 -47 l-48 -47 0 112 0 112 -25 0 -25 0 0 -175z"/>
<path d="M1190 536 l0 -166 82 0 c145 0 208 51 208 168 0 51 -4 66 -26 92 -40
47 -79 62 -176 68 l-88 5 0 -167z m201 78 c24 -23 29 -36 29 -77 0 -26 -5 -57
-10 -68 -16 -29 -64 -49 -120 -49 l-50 0 0 116 0 117 61 -6 c49 -4 67 -11 90
-33z"/>
<path d="M2360 672 c-53 -54 -30 -128 48 -152 58 -19 82 -38 82 -65 0 -42 -67
-60 -114 -30 -21 14 -24 13 -40 -4 -17 -19 -17 -20 10 -38 19 -12 47 -18 86
-18 48 0 62 4 83 26 60 59 36 132 -53 165 -26 10 -53 22 -59 27 -19 14 -16 41
5 60 23 21 51 22 79 2 18 -13 22 -12 39 6 26 29 6 42 -71 47 -61 4 -66 3 -95
-26z"/>
<path d="M1580 585 c-44 -20 -45 -22 -31 -39 10 -12 17 -13 45 -1 25 11 37 11
56 2 38 -19 35 -35 -7 -42 -70 -11 -82 -15 -97 -31 -20 -20 -21 -68 -1 -87 24
-24 71 -30 105 -14 16 9 30 11 30 6 0 -5 11 -9 25 -9 25 0 25 1 25 84 0 74 -3
88 -22 110 -29 32 -82 41 -128 21z m100 -135 c0 -23 -41 -53 -66 -48 -9 2 -22
11 -28 21 -15 24 15 47 61 47 26 0 33 -4 33 -20z"/>
<path d="M1876 579 c-21 -17 -26 -18 -26 -5 0 10 -9 16 -25 16 l-25 0 0 -110
0 -110 25 0 c24 0 25 2 25 70 0 76 19 110 60 110 15 0 20 7 20 25 0 31 -18 32
-54 4z"/>
<path d="M2839 568 c5 -13 25 -61 45 -106 20 -46 36 -91 36 -101 0 -26 -29
-61 -51 -61 -12 0 -19 -7 -19 -20 0 -16 7 -20 33 -20 20 0 41 8 51 19 15 16
126 284 126 304 0 5 -12 7 -27 5 -23 -3 -29 -12 -54 -83 -30 -90 -23 -94 -71
33 -17 46 -23 52 -48 52 -27 0 -29 -2 -21 -22z"/>
</g>
</svg>
