<?xml version="1.0" standalone="no"?>
<!DOCTYPE svg PUBLIC "-//W3C//DTD SVG 20010904//EN"
 "http://www.w3.org/TR/2001/REC-SVG-20010904/DTD/svg10.dtd">
<svg version="1.0" xmlns="http://www.w3.org/2000/svg"
 width="472.000000pt" height="107.000000pt" viewBox="0 0 472.000000 107.000000"
 preserveAspectRatio="xMidYMid meet">

<g transform="translate(0.000000,107.000000) scale(0.100000,-0.100000)"
fill="#000000" stroke="none">
<path d="M520 829 c0 -6 -13 -30 -29 -53 l-30 -43 57 15 c31 9 58 17 60 18 2
1 -7 18 -20 38 -23 36 -38 46 -38 25z"/>
<path d="M573 722 c-11 -15 -28 -42 -37 -61 -18 -33 -18 -34 3 -28 12 3 21 4
21 3 0 -1 -9 -27 -20 -59 -24 -67 -26 -109 -7 -101 11 4 13 -11 9 -75 -6 -109
2 -151 31 -151 36 0 99 42 131 88 24 34 31 56 34 106 5 76 -10 115 -90 228
l-55 78 -20 -28z"/>
<path d="M386 642 c-50 -69 -69 -118 -69 -182 0 -83 42 -154 113 -190 34 -17
110 -35 110 -26 0 2 -11 28 -25 58 -14 29 -25 63 -25 74 0 13 -8 24 -19 27
-16 4 -21 17 -27 76 -5 55 -10 71 -20 67 -17 -6 -18 38 -4 99 5 22 7 41 6 43
-2 1 -20 -19 -40 -46z"/>
<path d="M2310 610 l0 -60 -25 16 c-51 33 -115 -9 -115 -76 0 -72 64 -112 118
-74 12 8 22 10 22 5 0 -6 9 -11 20 -11 19 0 20 7 20 130 0 123 -1 130 -20 130
-18 0 -20 -7 -20 -60z m-20 -80 c11 -11 20 -29 20 -40 0 -20 -32 -60 -48 -60
-4 0 -18 7 -30 16 -30 20 -30 68 0 88 29 20 34 20 58 -4z"/>
<path d="M2490 540 c0 -123 1 -130 20 -130 11 0 20 5 20 11 0 6 7 3 16 -5 29
-30 93 -12 113 31 18 40 13 73 -18 104 -33 33 -56 36 -89 13 l-22 -15 0 60 c0
54 -2 61 -20 61 -19 0 -20 -7 -20 -130z m120 -10 c11 -11 20 -29 20 -40 0 -20
-32 -60 -48 -60 -23 0 -52 34 -52 60 0 18 8 34 22 44 29 20 34 20 58 -4z"/>
<path d="M3570 540 c0 -123 1 -130 20 -130 17 0 20 7 20 43 l1 42 37 -43 c24
-28 45 -42 61 -42 23 0 23 1 -12 43 l-35 43 31 34 31 35 -23 3 c-17 3 -31 -5
-48 -27 -14 -17 -29 -31 -34 -31 -5 0 -9 36 -9 80 0 73 -2 80 -20 80 -19 0
-20 -7 -20 -130z"/>
<path d="M4050 540 c0 -123 1 -130 20 -130 17 0 20 7 20 43 l1 42 37 -43 c24
-28 45 -42 61 -42 23 0 23 1 -12 43 l-36 44 37 36 37 37 -31 0 c-22 0 -36 -8
-52 -30 -13 -16 -27 -30 -32 -30 -6 0 -10 35 -10 80 0 73 -2 80 -20 80 -19 0
-20 -7 -20 -130z"/>
<path d="M3876 639 c-22 -17 -27 -28 -24 -58 3 -32 8 -38 48 -57 76 -37 86
-53 46 -79 -22 -15 -27 -15 -54 -1 -22 11 -32 12 -41 3 -16 -16 -14 -22 14
-35 65 -30 145 4 145 61 0 34 -19 53 -73 76 -40 17 -48 25 -45 43 3 20 9 23
48 23 61 1 81 13 49 31 -36 20 -83 17 -113 -7z"/>
<path d="M930 530 l0 -120 25 0 c23 0 25 3 25 50 l0 50 40 0 c30 0 47 7 65 25
30 30 31 54 4 89 -19 24 -27 26 -90 26 l-69 0 0 -120z m124 74 c9 -8 16 -19
16 -24 0 -15 -43 -40 -67 -40 -20 0 -23 5 -23 40 0 38 2 40 29 40 16 0 37 -7
45 -16z"/>
<path d="M2980 529 l0 -121 80 4 c74 3 82 5 111 35 26 25 32 40 33 76 2 89
-46 127 -158 127 l-66 0 0 -121z m129 80 c37 -13 51 -35 51 -81 0 -43 -29 -75
-75 -84 -60 -11 -65 -4 -65 84 0 43 3 82 7 85 10 10 46 8 82 -4z"/>
<path d="M1191 569 c-34 -13 -50 -39 -51 -76 0 -45 9 -62 41 -78 40 -21 74
-18 106 9 35 30 39 95 8 126 -24 24 -72 33 -104 19z m69 -39 c11 -11 20 -29
20 -40 0 -22 -33 -60 -52 -60 -22 0 -48 33 -48 61 0 17 8 34 22 43 29 20 34
20 58 -4z"/>
<path d="M1685 569 c-33 -19 -45 -41 -45 -80 0 -56 28 -84 84 -84 49 0 78 17
59 36 -8 8 -17 8 -33 -1 -27 -14 -70 1 -70 25 0 12 13 15 60 15 57 0 60 1 60
24 0 52 -69 91 -115 65z m63 -31 c24 -24 13 -38 -28 -38 -43 0 -55 20 -22 39
23 14 36 13 50 -1z"/>
<path d="M1901 563 c-14 -9 -21 -11 -17 -5 5 8 0 12 -13 12 -19 0 -21 -6 -21
-80 0 -73 2 -80 20 -80 17 0 20 7 20 53 0 56 12 77 43 77 12 0 17 6 15 17 -4
23 -20 26 -47 6z"/>
<path d="M2015 569 c-33 -19 -45 -41 -45 -80 0 -56 28 -84 84 -84 49 0 78 17
59 36 -8 8 -17 8 -33 -1 -27 -14 -70 1 -70 25 0 12 13 15 60 15 57 0 60 1 60
24 0 52 -69 91 -115 65z m63 -31 c24 -24 13 -38 -28 -38 -26 0 -40 5 -40 13 0
18 21 37 40 37 9 0 21 -5 28 -12z"/>
<path d="M3278 569 c-16 -6 -28 -15 -28 -19 0 -16 20 -21 40 -10 25 13 60 4
60 -16 0 -8 -9 -14 -20 -14 -11 0 -36 -7 -55 -14 -44 -19 -48 -57 -9 -83 21
-13 32 -15 55 -6 16 6 38 9 49 6 18 -5 20 -1 20 59 0 36 -6 72 -12 81 -17 21
-65 29 -100 16z m72 -102 c0 -18 -21 -37 -41 -37 -22 0 -33 16 -25 35 7 19 66
20 66 2z"/>
<path d="M3502 564 c-12 -8 -22 -10 -22 -5 0 6 -8 11 -17 11 -16 0 -18 -10
-18 -80 0 -70 2 -80 18 -80 13 0 17 9 17 43 0 45 22 87 46 87 8 0 14 9 14 20
0 24 -8 25 -38 4z"/>
<path d="M1368 491 c22 -69 29 -81 49 -81 18 0 25 10 39 55 10 30 21 52 24 48
4 -5 13 -29 20 -55 10 -40 17 -48 36 -48 18 0 26 10 43 55 34 91 36 105 13
105 -15 0 -22 -11 -32 -47 -7 -27 -16 -51 -20 -56 -3 -4 -14 18 -24 48 -14 46
-21 55 -41 55 -18 0 -25 -7 -30 -32 -4 -18 -12 -44 -18 -58 -9 -24 -11 -22
-26 30 -13 42 -22 56 -38 58 -22 3 -22 3 5 -77z"/>
<path d="M2690 567 c0 -2 16 -40 35 -84 37 -86 37 -109 -1 -124 -13 -4 -24
-15 -24 -24 0 -21 43 -19 64 3 13 15 96 211 96 228 0 2 -9 4 -19 4 -15 0 -24
-13 -37 -55 -10 -30 -21 -55 -25 -55 -3 0 -15 24 -25 53 -15 39 -25 53 -42 55
-12 2 -22 2 -22 -1z"/>
<path d="M4246 513 c43 -96 47 -110 34 -132 -6 -12 -17 -21 -25 -21 -8 0 -15
-9 -15 -20 0 -23 27 -27 53 -7 14 10 97 206 97 229 0 4 -8 8 -18 8 -13 0 -23
-16 -38 -62 l-20 -63 -25 63 c-19 50 -28 62 -46 62 l-23 0 26 -57z"/>
</g>
</svg>
