<?xml version="1.0" standalone="no"?>
<!DOCTYPE svg PUBLIC "-//W3C//DTD SVG 20010904//EN"
 "http://www.w3.org/TR/2001/REC-SVG-20010904/DTD/svg10.dtd">
<svg version="1.0" xmlns="http://www.w3.org/2000/svg"
 width="128.000000pt" height="128.000000pt" viewBox="0 0 128.000000 128.000000"
 preserveAspectRatio="xMidYMid meet">

<g transform="translate(0.000000,128.000000) scale(0.100000,-0.100000)"
fill="#000000" stroke="none">
<path d="M0 640 l0 -640 640 0 640 0 0 640 0 640 -640 0 -640 0 0 -640z m704
475 c27 -42 47 -77 45 -79 -2 -2 -33 -9 -68 -15 -36 -7 -86 -21 -113 -32 -27
-10 -51 -19 -53 -19 -3 0 13 24 36 53 22 28 52 78 67 109 15 32 29 58 32 58 3
0 27 -34 54 -75z m164 -241 c51 -74 110 -169 130 -212 35 -74 37 -82 37 -182
0 -96 -3 -110 -29 -165 -56 -113 -184 -212 -282 -218 l-39 -2 -12 55 c-15 75
-15 242 0 317 13 58 12 61 -4 52 -31 -16 -39 -10 -39 29 0 61 33 168 78 254 2
3 -13 2 -32 -4 -20 -6 -39 -9 -42 -6 -12 13 116 219 135 217 3 0 48 -61 99
-135z m-404 1 c-8 -28 -18 -92 -21 -144 -6 -90 -5 -94 13 -87 10 4 23 8 27 9
5 1 10 -35 12 -80 2 -45 9 -107 15 -138 11 -52 14 -56 35 -51 22 6 24 1 40
-70 9 -42 35 -110 56 -152 l40 -74 -68 4 c-221 13 -394 236 -354 455 20 107
65 193 170 325 25 31 46 56 48 55 1 -2 -5 -25 -13 -52z"/>
</g>
</svg>
