<?xml version="1.0" standalone="no"?>
<!DOCTYPE svg PUBLIC "-//W3C//DTD SVG 20010904//EN"
 "http://www.w3.org/TR/2001/REC-SVG-20010904/DTD/svg10.dtd">
<svg version="1.0" xmlns="http://www.w3.org/2000/svg"
 width="144.000000pt" height="18.000000pt" viewBox="0 0 144.000000 18.000000"
 preserveAspectRatio="xMidYMid meet">
<metadata>
Created by potrace 1.10, written by Peter Selinger 2001-2011
</metadata>
<g transform="translate(0.000000,18.000000) scale(0.100000,-0.100000)"
fill="#000000" stroke="none">
<path d="M903 170 c-49 -20 -54 -86 -8 -116 31 -21 69 -12 91 21 20 30 11 45
-27 45 -36 0 -38 -18 -2 -22 26 -3 26 -4 9 -20 -25 -25 -53 -22 -72 7 -15 23
-15 27 1 51 15 23 21 25 53 19 24 -4 33 -3 27 3 -16 16 -49 21 -72 12z"/>
<path d="M1310 105 c0 -37 4 -65 10 -65 6 0 10 28 10 65 0 37 -4 65 -10 65 -6
0 -10 -28 -10 -65z"/>
<path d="M580 141 c0 -12 -8 -21 -21 -23 -56 -8 -48 -73 10 -73 l31 -1 0 58
c0 32 -4 58 -10 58 -5 0 -10 -9 -10 -19z m-5 -61 c0 -27 -22 -39 -31 -16 -8
22 3 49 19 43 6 -2 12 -14 12 -27z"/>
<path d="M660 102 l0 -59 31 1 c59 2 66 71 7 71 -20 0 -24 4 -20 22 2 13 -1
23 -7 23 -7 0 -11 -22 -11 -58z m58 -16 c6 -29 -15 -43 -35 -24 -14 14 -14 20
-3 33 16 19 34 15 38 -9z"/>
<path d="M1026 114 c-9 -8 -16 -22 -16 -29 0 -18 27 -45 45 -45 18 0 45 27 45
45 0 18 -27 45 -45 45 -7 0 -21 -7 -29 -16z m52 -27 c4 -20 -25 -34 -40 -19
-15 15 -1 44 19 40 10 -2 19 -11 21 -21z"/>
<path d="M1126 114 c-9 -8 -16 -22 -16 -29 0 -18 27 -45 45 -45 18 0 45 27 45
45 0 18 -27 45 -45 45 -7 0 -21 -7 -29 -16z m52 -27 c4 -20 -25 -34 -40 -19
-15 15 -1 44 19 40 10 -2 19 -11 21 -21z"/>
<path d="M1226 114 c-9 -8 -16 -22 -16 -29 0 -23 30 -46 52 -39 15 4 19 2 16
-7 -3 -9 -17 -13 -39 -11 -25 2 -31 0 -23 -8 7 -7 24 -10 40 -8 28 3 29 6 32
58 3 53 2 56 -22 58 -14 1 -32 -5 -40 -14z m52 -27 c4 -20 -25 -34 -40 -19
-15 15 -1 44 19 40 10 -2 19 -11 21 -21z"/>
<path d="M1362 118 c-16 -16 -15 -53 3 -68 17 -14 47 -10 53 8 3 9 -3 11 -22
6 -15 -3 -26 -2 -26 4 0 5 11 13 25 16 28 7 33 31 9 40 -22 8 -28 8 -42 -6z
m33 -18 c-3 -5 -13 -10 -21 -10 -8 0 -12 5 -9 10 3 6 13 10 21 10 8 0 12 -4 9
-10z"/>
<path d="M2 66 c0 -31 5 -56 10 -56 6 0 8 9 5 19 -4 16 0 19 20 18 59 -4 54
65 -5 71 l-30 3 0 -55z m53 14 c0 -13 -6 -25 -12 -27 -16 -6 -27 21 -19 43 9
23 31 11 31 -16z"/>
<path d="M97 113 c-11 -11 -8 -48 5 -61 32 -32 80 8 58 48 -10 19 -49 27 -63
13z m51 -30 c4 -25 -22 -37 -38 -17 -10 11 -10 17 0 29 17 20 34 14 38 -12z"/>
<path d="M183 80 c12 -42 30 -48 35 -12 4 28 20 28 24 0 5 -36 23 -30 35 12 5
22 7 40 3 40 -4 0 -11 -12 -15 -27 l-7 -28 -10 28 c-5 15 -13 27 -18 27 -5 0
-13 -12 -18 -27 l-10 -28 -7 28 c-4 15 -11 27 -15 27 -4 0 -2 -18 3 -40z"/>
<path d="M301 98 c-16 -43 20 -73 58 -49 8 5 9 11 3 15 -6 3 -13 2 -17 -3 -7
-12 -35 -3 -35 10 0 5 14 9 30 9 32 0 37 9 18 28 -19 19 -48 14 -57 -10z m44
2 c3 -5 -3 -10 -15 -10 -12 0 -18 5 -15 10 3 6 10 10 15 10 5 0 12 -4 15 -10z"/>
<path d="M380 80 c0 -22 5 -40 10 -40 6 0 10 13 10 30 0 17 7 33 18 39 14 9
13 10 -10 11 -26 0 -28 -3 -28 -40z"/>
<path d="M440 100 c-13 -25 3 -60 28 -60 24 0 47 16 34 24 -6 3 -13 2 -17 -3
-7 -12 -35 -3 -35 10 0 5 14 9 30 9 32 0 37 9 18 28 -18 18 -46 14 -58 -8z
m45 0 c3 -5 -3 -10 -15 -10 -12 0 -18 5 -15 10 3 6 10 10 15 10 5 0 12 -4 15
-10z"/>
<path d="M756 89 c9 -18 13 -41 10 -55 -7 -27 9 -33 17 -6 3 9 12 34 21 55 9
20 12 37 7 37 -5 0 -14 -12 -19 -27 l-9 -28 -13 28 c-7 15 -17 27 -22 27 -5 0
-1 -14 8 -31z"/>
</g>
</svg>
